<svg xmlns="http://www.w3.org/2000/svg" version="1.1" xmlns:xlink="http://www.w3.org/1999/xlink" xmlns:svgjs="http://svgjs.dev/svgjs" width="2000" height="1635" viewBox="0 0 2000 1635"><g transform="matrix(1,0,0,1,0.16957415767740258,0.6619433198379738)"><svg viewBox="0 0 302 247" data-background-color="#ffffff" preserveAspectRatio="xMidYMid meet" height="1635" width="2000" xmlns="http://www.w3.org/2000/svg" xmlns:xlink="http://www.w3.org/1999/xlink"><g id="tight-bounds" transform="matrix(1,0,0,1,-0.0256056978092829,-0.09999999999999432)"><svg viewBox="0 0 302.05121139561857 247.2" height="247.2" width="302.05121139561857"><g><svg viewBox="0 0 397.4975999999999 325.3137316218203" height="247.2" width="302.05121139561857"><g><rect width="397.4975999999999" height="9.963929936790787" x="0" y="178.7781259411923" fill="#0023ff" opacity="1" stroke-width="0" stroke="transparent" fill-opacity="1" class="rect-qz-0" data-fill-palette-color="secondary" rx="1%" id="qz-0" data-palette-color="#0023ff"></rect></g><g transform="matrix(1,0,0,1,0.9887999999999693,214.82564209994848)"><svg viewBox="0 0 395.52 110.48808952187181" height="110.48808952187181" width="395.52"><g id="textblocktransform"><svg viewBox="0 0 395.52 110.48808952187181" height="110.48808952187181" width="395.52" id="textblock"><g><svg viewBox="0 0 395.52 110.48808952187181" height="110.48808952187181" width="395.52"><g transform="matrix(1,0,0,1,0,0)"><svg width="395.52" viewBox="3.75 -35.8 245.73 68.65" height="110.48808952187181" data-palette-color="#009688"><path d="M17.15 0.85Q13.5 0.85 10.45-0.63 7.4-2.1 5.58-5.15 3.75-8.2 3.75-12.75L3.75-12.75Q3.75-18.55 6.65-23.88 9.55-29.2 14.53-32.5 19.5-35.8 25.4-35.8L25.4-35.8Q28.6-35.8 31.4-34.83 34.2-33.85 35.3-32.2L35.3-32.2Q34.8-30.9 34.43-28.93 34.05-26.95 34-25.2L34-25.2 32.75-25Q32.75-25.75 32.68-26.85 32.6-27.95 32.45-28.85L32.45-28.85Q32.1-31.2 30.48-32.45 28.85-33.7 25.55-33.7L25.55-33.7Q20.2-33.7 15.88-30.6 11.55-27.5 9.1-22.65 6.65-17.8 6.65-12.85L6.65-12.85Q6.65-9.05 8.13-6.53 9.6-4 12.08-2.78 14.55-1.55 17.6-1.55L17.6-1.55Q22.85-1.55 27.4-4.98 31.95-8.4 34.3-14.75L34.3-14.75Q35.65-14.75 35.65-12.9L35.65-12.9Q35.65-10.3 33.05-7.03 30.45-3.75 26.18-1.45 21.9 0.85 17.15 0.85L17.15 0.85ZM68.55-17.65Q69.05-17.5 69.05-16.65L69.05-16.65Q69.05-15.4 68.05-14.08 67.05-12.75 65.32-11.9 63.6-11.05 61.55-11.05L61.55-11.05Q58.8-11.05 56.7-12.55L56.7-12.55Q56.4-11.1 55.95-9.6L55.95-9.6Q55.8-9.05 55.3-7.08 54.8-5.1 54.6-3.55L54.6-3.55Q54.25-2.75 53.2-1.83 52.15-0.9 50.7-0.25 49.25 0.4 47.85 0.4L47.85 0.4Q46.3 0.4 44.85-0.4 43.4-1.2 42.47-2.55 41.55-3.9 41.55-5.55L41.55-5.55Q42.25-7.65 42.7-9.5 43.15-11.35 43.55-13.25L43.55-13.25 44.05-15.75Q44.3-16.9 45.4-18.03 46.5-19.15 48.07-19.88 49.65-20.6 51.25-20.6L51.25-20.6Q51.85-20.6 52.95-20.4L52.95-20.4Q53.1-21.55 53.47-22 53.85-22.45 54.7-22.45L54.7-22.45Q55.2-22.45 55.85-22.3L55.85-22.3Q55.6-20.9 55.6-19.9L55.6-19.9Q55.6-17 57.35-15 59.1-13 62.1-13L62.1-13Q64.35-13 65.97-14.2 67.6-15.4 68.55-17.65L68.55-17.65ZM52.4-4.4Q52.8-6.4 53.55-8.95L53.55-8.95Q54.55-12.3 54.85-14.35L54.85-14.35Q53.75-15.75 53.35-17.75L53.35-17.75Q53.35-17.95 53.27-18.07 53.2-18.2 52.95-18.25L52.95-18.25Q52.2-18.55 51.25-18.55L51.25-18.55Q49.4-18.55 48.05-17.55 46.7-16.55 46.35-15.15L46.35-15.15Q46.2-14.55 45.25-10.45L45.25-10.45Q44.8-8.05 44.15-5.7L44.15-5.7Q44.15-3.85 45.4-2.83 46.65-1.8 48.05-1.8L48.05-1.8Q49.25-1.8 50.62-2.65 52-3.5 52.4-4.4L52.4-4.4ZM100.2-11.55Q100.25-10 98.32-7.15 96.4-4.3 93.59-2.1 90.8 0.1 88.09 0.1L88.09 0.1Q86.2 0.1 84.97-1.13 83.75-2.35 83.75-4.85L83.75-4.85Q83.75-6.9 84.42-9.47 85.09-12.05 86.25-15.6L86.25-15.6Q86.59-16.55 86.9-17.6L86.9-17.6Q86.9-17.75 86.7-17.88 86.5-18 86.3-18L86.3-18Q85.65-18 83.72-16.13 81.8-14.25 79.82-11.83 77.84-9.4 77.2-8.15L77.2-8.15Q76.7-6.6 75.55-1.65L75.55-1.65Q75.34-0.8 75.22-0.5 75.09-0.2 74.8-0.2L74.8-0.2Q74.34-0.2 73.77-0.75 73.2-1.3 73.2-1.85L73.2-1.85Q73.2-2.4 73.7-4.25L73.7-4.25Q75.8-11.95 77.09-17.6L77.09-17.6Q76.8-18 76.34-18L76.34-18Q75.59-18 73.8-16.15 72-14.3 70.05-11.48 68.09-8.65 66.84-5.9L66.84-5.9Q66.09-3.45 65.5-0.25L65.5-0.25Q65-0.25 64.2-0.6 63.4-0.95 63.4-1.3L63.4-1.3Q63.4-1.7 63.9-3.55L63.9-3.55 68.15-20.1Q68.25-20.55 68.4-20.75 68.55-20.95 68.84-20.95L68.84-20.95Q69.15-20.95 69.87-20.65 70.59-20.35 70.8-20.15L70.8-20.15 70.34-18.55Q70.2-17.95 69.67-16.07 69.15-14.2 68.7-12.2L68.7-12.2Q70.25-14.9 71.92-16.68 73.59-18.45 75-19.28 76.4-20.1 77.15-20.1L77.15-20.1Q77.7-20.1 78.55-19.5 79.4-18.9 79.4-18.5L79.4-18.5Q78.95-15.75 78.09-12.3L78.09-12.3Q80.15-15.1 83-17.88 85.84-20.65 87.34-20.65L87.34-20.65Q88.05-20.65 88.84-20.1 89.65-19.55 89.7-18.8L89.7-18.8Q88.09-13.85 87.22-10.65 86.34-7.45 86.34-4.9L86.34-4.9Q86.34-3.4 86.84-2.73 87.34-2.05 88.65-2.05L88.65-2.05Q91.7-2.05 94.55-5.38 97.4-8.7 98.9-13.2L98.9-13.2Q99.45-13.2 99.82-12.7 100.2-12.2 100.2-11.55L100.2-11.55ZM121.64-10.25Q122.39-9.8 122.39-8.75L122.39-8.75Q122.39-8.15 122.17-7.7 121.94-7.25 121.54-6.75L121.54-6.75Q119.09-3.8 115.14-2.23 111.19-0.65 107.77-0.18 104.34 0.3 102.19 0.3L102.19 0.3Q100.89 0.3 100.39 0.05 99.89-0.2 99.89-0.95L99.89-0.95Q99.89-1.35 100.04-1.8L100.04-1.8Q101.44-1.55 101.99-1.55L101.99-1.55Q104.49-1.55 106.14-3.43 107.79-5.3 108.72-7.93 109.64-10.55 110.59-14.4L110.59-14.4Q110.74-14.85 110.94-15.75L110.94-15.75Q110.94-16.4 109.92-17.35 108.89-18.3 108.19-18.3L108.19-18.3Q107.54-18.3 106.14-17.48 104.74-16.65 103.42-15.08 102.09-13.5 101.49-11.45L101.49-11.45Q100.04-6.35 99.02-1.95 97.99 2.45 96.74 8.35L96.74 8.35Q94.14 20.55 92.14 28.35L92.14 28.35Q91.79 29.7 91.24 30.38 90.69 31.05 89.94 31.33 89.19 31.6 87.49 31.95L87.49 31.95Q85.34 32.35 83.59 32.85L83.59 32.85 83.04 32.6Q85.84 31.35 87.14 30.2 88.44 29.05 89.09 27.38 89.74 25.7 90.74 21.7L90.74 21.7Q97.14-3.45 102.14-24.55L102.14-24.55Q102.24-25 102.44-25.18 102.64-25.35 102.94-25.45L102.94-25.45Q103.44-25.65 104.14-25.98 104.84-26.3 105.09-26.35L105.09-26.35Q105.24-26.3 105.54-25.9L105.54-25.9Q105.44-25.55 105.29-25.35L105.29-25.35Q104.89-24.45 103.29-18.9L103.29-18.9Q102.84-17.4 102.74-17.05L102.74-17.05Q104.09-18.6 105.97-19.8 107.84-21 108.94-21L108.94-21Q109.84-21 111.04-20.18 112.24-19.35 113.09-18.2 113.94-17.05 113.94-16.1L113.94-16.1 113.34-13.8Q112.59-10.75 111.92-8.7 111.24-6.65 109.94-4.75 108.64-2.85 106.64-1.7L106.64-1.7Q109.59-2.1 111.89-2.9 114.19-3.7 116.59-5.43 118.99-7.15 121.64-10.25L121.64-10.25ZM147.99-11.55Q148.64-11.55 148.64-10.25L148.64-10.25Q148.64-7.95 146.62-5.4 144.59-2.85 141.72-1.13 138.84 0.6 136.44 0.6L136.44 0.6Q134.49 0.6 133.44-0.6 132.39-1.8 132.19-3.7L132.19-3.7Q130.94-1.9 129.04-0.75 127.14 0.4 125.64 0.4L125.64 0.4Q124.34 0.4 123.07-0.48 121.79-1.35 120.99-2.63 120.19-3.9 120.14-5.05L120.14-5.05 122.59-15.15Q122.89-16.35 124.12-17.73 125.34-19.1 127.09-20 128.84-20.9 130.64-20.9L130.64-20.9Q132.94-20.9 134.69-19.35L134.69-19.35Q135.14-20.55 135.37-20.85 135.59-21.15 136.04-21.2L136.04-21.2 138.49-21.45 138.64-21.35Q137.64-20.55 137.19-18.85L137.19-18.85Q135.64-13.05 135.07-10.3 134.49-7.55 134.49-5.45L134.49-5.45Q134.49-3.35 135.04-2.38 135.59-1.4 136.89-1.4L136.89-1.4Q138.49-1.4 140.72-2.7 142.94-4 144.94-6.33 146.94-8.65 147.99-11.55L147.99-11.55ZM125.84-1.95Q126.69-1.95 127.92-2.55 129.14-3.15 130.22-4.28 131.29-5.4 131.69-6.85L131.69-6.85 132.64-10.95Q132.84-11.95 133.34-14.18 133.84-16.4 134.14-17.6L134.14-17.6Q132.74-19 130.74-19L130.74-19Q129.19-19 127.94-18.18 126.69-17.35 125.89-16.18 125.09-15 124.89-14.1L124.89-14.1 122.89-5.2Q122.99-3.95 123.89-2.95 124.79-1.95 125.84-1.95L125.84-1.95ZM169.99-12.2Q170.49-12.2 170.71-11.78 170.94-11.35 170.94-10.8L170.94-10.8Q170.94-9 169.04-6.25 167.14-3.5 164.21-1.45 161.29 0.6 158.44 0.6L158.44 0.6Q156.64 0.6 155.66-0.3 154.69-1.2 154.69-3.05L154.69-3.05Q154.69-5.6 156.09-9.98 157.49-14.35 158.64-17.25L158.64-17.25Q158.44-17.55 158.24-17.55L158.24-17.55Q158.04-17.55 157.79-17.4L157.79-17.4Q156.89-16.85 154.84-14.95 152.79-13.05 150.84-10.95 148.89-8.85 148.19-7.55L148.19-7.55Q147.39-5.4 147.19-4.83 146.99-4.25 146.79-2.95L146.79-2.95 146.34-0.7Q146.29-0.55 146.24-0.33 146.19-0.1 146.11-0.05 146.04 0 145.89 0L145.89 0Q145.44 0 144.71-0.1 143.99-0.2 143.99-0.4L143.99-0.4Q143.99-1 144.34-2.35 144.69-3.7 145.04-4.8 145.39-5.9 145.59-6.5L145.59-6.5 146.04-7.9Q147.49-12.9 148.01-15.18 148.54-17.45 149.04-20.25L149.04-20.25Q149.09-20.75 149.74-20.75L149.74-20.75Q150.19-20.75 150.76-20.53 151.34-20.3 151.44-19.9L151.44-19.9Q151.24-19 150.71-16.85 150.19-14.7 149.44-12.1L149.44-12.1Q152.34-15.35 155.46-18 158.59-20.65 159.64-20.65L159.64-20.65Q160.14-20.65 160.84-20.15 161.54-19.65 161.69-19.2L161.69-19.2Q160.09-14.9 158.64-9.83 157.19-4.75 157.19-3.15L157.19-3.15Q157.19-1.4 159.19-1.4L159.19-1.4Q162.14-1.4 165.16-4.7 168.19-8 169.99-12.2L169.99-12.2ZM183.44-20.9Q184.09-20.9 184.91-20.38 185.74-19.85 185.94-19.2L185.94-19.2Q185.34-17.2 184.79-15L184.79-15Q184.54-14.15 183.74-11.28 182.94-8.4 181.64-4.25L181.64-4.25Q178.74 4.9 175.91 11.03 173.09 17.15 168.19 21.4 163.29 25.65 155.99 25.65L155.99 25.65Q152.34 25.65 149.89 24.55 147.44 23.45 146.26 21.7 145.09 19.95 145.09 17.85L145.09 17.85Q145.09 17.15 145.24 16.78 145.39 16.4 145.49 16.1L145.49 16.1Q147.04 19.25 149.61 20.88 152.19 22.5 156.44 22.5L156.44 22.5Q162.14 22.5 166.29 19.58 170.44 16.65 173.44 11.03 176.44 5.4 178.84-3.3L178.84-3.3Q177.34-1.95 175.41-0.98 173.49 0 172.24 0L172.24 0Q171.29 0 170.41-0.6 169.54-1.2 168.96-2.13 168.39-3.05 168.39-3.85L168.39-3.85Q169.74-10 170.94-15.1L170.94-15.1Q171.54-17.8 171.89-19.3L171.89-19.3Q172.09-20.1 172.44-20.4 172.79-20.7 173.54-20.7L173.54-20.7Q174.19-20.7 174.84-20.45L174.84-20.45 171.04-4.45Q171.04-3.7 171.66-3.05 172.29-2.4 173.04-2.4L173.04-2.4Q174.14-2.4 176.44-3.85 178.74-5.3 179.54-6.35L179.54-6.35Q180.64-9.05 181.34-11.75 182.04-14.45 182.94-18.6L182.94-18.6 183.44-20.9ZM248.38 1.85Q248.88 2.1 249.18 2.73 249.48 3.35 249.48 4.15L249.48 4.15Q249.48 5.95 247.91 7.3 246.33 8.65 243.03 8.65L243.03 8.65Q239.88 8.65 236.61 7.83 233.33 7 227.88 5.2L227.88 5.2 223.28 3.7Q217.78 1.95 212.73 0.93 207.68-0.1 202.33-0.1L202.33-0.1Q202.13-0.1 201.91-0.63 201.68-1.15 201.63-1.65L201.63-1.65Q201.63-2.5 202.03-2.5L202.03-2.5Q203.83-2.5 205.48-3.85L205.48-3.85Q206.93-5.05 210.03-8.38 213.13-11.7 219.88-19.1L219.88-19.1Q229.38-29.5 232.53-32.7L232.53-32.7Q230.88-32.7 227.58-32.8L227.58-32.8Q222.68-32.9 220.48-32.9L220.48-32.9Q215.13-32.9 211.91-32.48 208.68-32.05 207.98-31L207.98-31Q207.58-30.4 207.31-29.63 207.03-28.85 206.93-28.55L206.93-28.55Q206.48-28.55 206.03-29L206.03-29Q206.13-29.45 206.48-32.1L206.48-32.1 206.63-33.45Q206.78-34.5 207.78-34.6L207.78-34.6Q212.28-34.95 221.68-34.95L221.68-34.95 231.18-34.9Q233.23-34.85 236.08-34.85L236.08-34.85Q236.78-34.85 236.96-34.35 237.13-33.85 237.18-32.95L237.18-32.95Q236.03-32.75 235.03-31.7L235.03-31.7Q234.48-31.1 228.08-24.45L228.08-24.45Q216.63-12.6 210.23-5.25L210.23-5.25Q208.58-3.4 207.03-2.3L207.03-2.3Q209.73-1.8 212.56-1.07 215.38-0.35 219.98 0.95L219.98 0.95 224.23 2.15Q229.13 3.55 233.08 4.3 237.03 5.05 240.38 5.05L240.38 5.05Q243.93 5.05 245.91 4.3 247.88 3.55 248.38 1.85L248.38 1.85Z" opacity="1" transform="matrix(1,0,0,1,0,0)" fill="#009688" class="wordmark-text-0" data-fill-palette-color="primary" id="text-0"></path></svg></g></svg></g></svg></g></svg></g><g transform="matrix(1,0,0,1,93.00491877752229,0)"><svg viewBox="0 0 211.48776244495534 152.69453971922687" height="152.69453971922687" width="211.48776244495534"><g><svg xmlns="http://www.w3.org/2000/svg" xmlns:xlink="http://www.w3.org/1999/xlink" version="1.1" x="8" y="0" viewBox="205 214.85199999999998 89.99800080240368 70.29700036616418" enable-background="new 200 200 100 100" xml:space="preserve" height="152.69453971922687" width="195.48776244495534" class="icon-icon-0" data-fill-palette-color="accent" id="icon-0"><g fill="#009688" data-fill-palette-color="accent"><path fill="none" d="M250 232.601c3.338 0 6.096-3.626 6.528-8.329-0.293 0.074-0.653 0.216-1.047 0.49 0 0 0.746-4.425-0.827-5.046 0 0-2.172 1.054-4.654 1.122-2.482-0.068-4.654-1.122-4.654-1.122-1.574 0.621-0.829 5.046-0.829 5.046-0.393-0.274-0.753-0.417-1.047-0.49C243.904 228.975 246.661 232.601 250 232.601z"></path><path fill="none" d="M279.876 269.587c3.339 0 6.096-3.625 6.529-8.328-0.294 0.073-0.654 0.216-1.048 0.489 0 0 0.746-4.425-0.827-5.046 0 0-2.172 1.056-4.654 1.123-2.482-0.067-4.654-1.123-4.654-1.123-1.573 0.621-0.827 5.047-0.827 5.047-0.394-0.274-0.754-0.417-1.047-0.49C273.78 265.962 276.537 269.587 279.876 269.587z"></path><path fill="none" d="M219.938 269.587c3.338 0 6.096-3.625 6.529-8.328-0.294 0.073-0.655 0.217-1.048 0.489 0 0 0.746-4.425-0.828-5.045 0 0-2.172 1.055-4.654 1.122-2.482-0.067-4.653-1.122-4.653-1.122-1.574 0.62-0.829 5.047-0.829 5.047-0.393-0.274-0.754-0.418-1.046-0.491C213.843 265.962 216.599 269.587 219.938 269.587z"></path><path d="M225.924 269.898c-0.04 1.798-2.704 3.248-5.986 3.248-3.282 0-5.946-1.45-5.985-3.248-5.021 0.459-8.953 4.68-8.953 9.818 0 5.446 4.415 5.433 9.86 5.433h10.155c5.446 0 9.86 0.014 9.86-5.433C234.875 274.577 230.945 270.357 225.924 269.898z" fill="#009688" data-fill-palette-color="accent"></path><path d="M212.479 260.986c0.006 0.071 0.012 0.142 0.018 0.213 0.476 5.383 3.625 9.543 7.441 9.543s6.965-4.16 7.441-9.543c0.006-0.071 0.012-0.142 0.018-0.213 0.035-0.233 0.056-0.47 0.071-0.71 0.009-0.164 0.016-0.328 0.016-0.495 0-0.409-0.03-0.813-0.086-1.205-0.551-3.814-3.68-6.737-7.459-6.737-3.778 0-6.907 2.923-7.459 6.737-0.056 0.393-0.086 0.796-0.086 1.205 0 0.166 0.006 0.331 0.016 0.495C212.423 260.515 212.445 260.752 212.479 260.986zM215.284 256.703c0 0 2.171 1.055 4.653 1.122 2.482-0.067 4.654-1.122 4.654-1.122 1.574 0.62 0.828 5.045 0.828 5.045 0.393-0.272 0.754-0.416 1.048-0.489-0.434 4.703-3.191 8.328-6.529 8.328-3.338 0-6.095-3.625-6.528-8.328 0.293 0.073 0.653 0.217 1.046 0.491C214.456 261.75 213.71 257.323 215.284 256.703z" fill="#009688" data-fill-palette-color="accent"></path><path d="M272.417 260.986c0.006 0.071 0.012 0.142 0.018 0.212 0.476 5.384 3.626 9.544 7.441 9.544 3.814 0 6.965-4.16 7.44-9.544 0.007-0.07 0.013-0.141 0.019-0.212 0.033-0.234 0.057-0.47 0.07-0.71 0.009-0.164 0.016-0.329 0.016-0.496 0-0.409-0.029-0.812-0.086-1.204-0.552-3.815-3.682-6.737-7.459-6.737-3.778 0-6.907 2.922-7.459 6.737-0.057 0.393-0.086 0.795-0.086 1.204 0 0.167 0.007 0.332 0.016 0.496C272.361 260.515 272.383 260.751 272.417 260.986zM275.221 256.702c0 0 2.172 1.056 4.654 1.123 2.482-0.067 4.654-1.123 4.654-1.123 1.573 0.621 0.827 5.046 0.827 5.046 0.394-0.273 0.754-0.416 1.048-0.489-0.434 4.703-3.19 8.328-6.529 8.328s-6.096-3.625-6.528-8.328c0.293 0.073 0.653 0.216 1.047 0.49C274.394 261.749 273.648 257.323 275.221 256.702z" fill="#009688" data-fill-palette-color="accent"></path><path d="M286.407 269.762c-0.017-0.003-0.035-0.003-0.052-0.006-0.139-0.02-0.278-0.036-0.42-0.049-0.001 0.016-0.004 0.029-0.004 0.043-0.004 0.041-0.01 0.082-0.015 0.123-0.026 0.234-0.096 0.461-0.205 0.68-0.733 1.846-3.106 5.346-4.504 7.332l-0.288-4.127c0.408-0.209 0.76-0.557 0.984-0.958 0.162-0.289 0.261-0.604 0.261-0.926 0 0-1.043 0.461-2.107 0.461-0.061 0-0.121-0.002-0.182-0.004-0.061 0.002-0.122 0.004-0.183 0.004-1.064 0-2.106-0.461-2.106-0.461 0 0.321 0.099 0.637 0.261 0.926 0.225 0.401 0.576 0.749 0.984 0.958l-0.288 4.127c-1.397-1.986-3.771-5.486-4.505-7.332-0.108-0.219-0.179-0.445-0.205-0.68-0.004-0.041-0.012-0.082-0.014-0.123 0-0.014-0.004-0.027-0.005-0.043-0.141 0.013-0.28 0.029-0.419 0.049-0.018 0.003-0.035 0.004-0.052 0.006-4.856 0.676-8.594 4.844-8.594 9.887 0 5.514 4.471 5.5 9.984 5.5h5.141 5.141c5.513 0 9.983 0.014 9.983-5.5C295 274.606 291.263 270.438 286.407 269.762z" fill="#009688" data-fill-palette-color="accent"></path><path d="M255.985 232.911c-0.04 1.798-2.704 3.249-5.985 3.249-3.282 0-5.946-1.451-5.985-3.249-5.021 0.458-8.953 4.679-8.953 9.818 0 5.446 4.415 5.433 9.861 5.433h10.155c5.445 0 9.86 0.014 9.86-5.433C264.938 237.591 261.006 233.37 255.985 232.911z" fill="#009688" data-fill-palette-color="accent"></path><path d="M242.541 223.999c0.005 0.07 0.012 0.141 0.018 0.212 0.476 5.384 3.625 9.543 7.441 9.543 3.814 0 6.965-4.159 7.44-9.543 0.007-0.071 0.013-0.142 0.019-0.212 0.033-0.234 0.057-0.471 0.069-0.71 0.01-0.164 0.017-0.329 0.017-0.495 0-0.409-0.03-0.812-0.086-1.205-0.552-3.815-3.682-6.737-7.459-6.737-3.778 0-6.907 2.923-7.459 6.737-0.057 0.393-0.086 0.796-0.086 1.205 0 0.167 0.006 0.331 0.015 0.495C242.485 223.529 242.507 223.765 242.541 223.999zM245.346 219.717c0 0 2.171 1.054 4.654 1.122 2.482-0.068 4.654-1.122 4.654-1.122 1.573 0.621 0.827 5.046 0.827 5.046 0.394-0.274 0.754-0.417 1.047-0.49-0.433 4.703-3.19 8.329-6.528 8.329-3.338 0-6.096-3.626-6.529-8.329 0.293 0.074 0.654 0.216 1.046 0.49C244.517 224.762 243.772 220.337 245.346 219.717z" fill="#009688" data-fill-palette-color="accent"></path><polygon points="252.406,251.864 247.594,251.864 247.594,263.876 237.197,269.878 239.602,274.045 250,268.042 260.398,274.045    262.803,269.878 252.406,263.876  " fill="#009688" data-fill-palette-color="accent"></polygon></g></svg></g></svg></g><g></g></svg></g><defs></defs></svg><rect width="302.05121139561857" height="247.2" fill="none" stroke="none" visibility="hidden"></rect></g></svg></g></svg>